<?xml version="1.0" encoding="UTF-8" standalone="no"?>
<!DOCTYPE svg PUBLIC "-//W3C//DTD SVG 1.1//EN" "http://www.w3.org/Graphics/SVG/1.1/DTD/svg11.dtd">
<!-- Created with Vectornator (http://vectornator.io/) -->
<svg height="100%" stroke-miterlimit="10" style="fill-rule:nonzero;clip-rule:evenodd;stroke-linecap:round;stroke-linejoin:round;" version="1.1" viewBox="0 0 1024 1024" width="100%" xml:space="preserve" xmlns="http://www.w3.org/2000/svg" xmlns:vectornator="http://vectornator.io" xmlns:xlink="http://www.w3.org/1999/xlink">
<defs>
<clipPath id="TextBounds">
<rect height="1179.11" width="1200.42" x="56.2349" y="-43.2266"/>
</clipPath>
</defs>
<clipPath id="ArtboardFrame">
<rect height="1024" width="1024" x="0" y="0"/>
</clipPath>
<g clip-path="url(#ArtboardFrame)" id="Layer-1" vectornator:layerName="Layer 1">
<path d="M-0.844437 0.528551L1024.37-1.17138L1023.73 1024.26L-0.801986 1025.15L-0.844437 0.528551Z" fill="#ffffff" fill-rule="nonzero" opacity="1" stroke="none"/>
<path clip-path="url(#TextBounds)" d="M955.935 914.673L887.535 914.673C823.335 914.673 769.035 892.173 724.635 847.173C682.035 797.973 639.735 749.073 597.735 700.473C532.935 636.873 451.035 590.373 352.035 560.973C335.235 581.373 312.735 608.223 284.535 641.523C256.335 674.823 223.035 708.723 184.635 743.223C146.235 777.723 115.335 794.973 91.9349 794.973C80.5349 794.973 72.5849 792.723 68.0849 788.223C63.5849 783.723 61.3349 775.773 61.3349 764.373C61.3349 755.373 87.2849 735.123 139.185 703.623C191.085 672.123 252.135 621.273 322.335 551.073C295.335 544.473 269.835 541.173 245.835 541.173C220.635 541.173 201.285 543.423 187.785 547.923C174.285 552.423 157.035 560.073 136.035 570.873C153.435 554.673 173.385 542.973 195.885 535.773C218.385 528.573 242.235 524.973 267.435 524.973C290.835 524.973 313.935 527.373 336.735 532.173C391.935 463.173 439.935 390.573 480.735 314.373C521.535 238.173 550.635 168.873 568.035 106.473C587.835 197.673 610.935 298.023 637.335 407.523C663.735 517.023 703.035 619.923 755.235 716.223C807.435 812.523 874.335 878.673 955.935 914.673ZM514.035 301.773C495.435 342.573 473.985 382.323 449.685 421.023C425.385 459.723 397.935 499.173 367.335 539.373C413.535 550.773 456.585 564.423 496.485 580.323C536.385 596.223 570.135 615.273 597.735 637.473C584.535 610.473 569.835 564.873 553.635 500.673C537.435 436.473 524.235 370.173 514.035 301.773Z" fill="#1e3a8a" opacity="1" stroke="none"/>
</g>
</svg>
